<svg width="20" height="20" viewBox="0 0 20 20" fill="none" xmlns="http://www.w3.org/2000/svg">
<g clip-path="url(#clip0_0_1108)">
<path d="M20.0001 3.7888V16.2097C19.9735 16.3557 19.9493 16.5029 19.9195 16.6485C19.8106 17.1876 19.593 17.6989 19.28 18.1513C19.227 18.0725 19.1692 17.9971 19.107 17.9255C16.2629 15.0816 13.4188 12.2386 10.5747 9.39658C10.3576 9.17212 10.1192 8.96936 9.86277 8.79115C8.64946 7.98143 7.34965 7.82332 5.97979 8.34069C5.39271 8.5622 4.89486 8.92225 4.45337 9.36527C3.03263 10.7883 1.61058 12.2102 0.187227 13.6311C0.135955 13.6824 0.0819438 13.7313 0.00170898 13.8072V13.6072C0.00170898 10.4836 0.00170898 7.36021 0.00170898 4.23691C0.00170898 4.15237 0.00366689 4.06745 0.00758078 3.98291C0.0497551 3.08607 0.37962 2.22664 0.948344 1.53186C1.51707 0.837078 2.29442 0.343884 3.16531 0.125291C3.35905 0.0771539 3.5567 0.0419319 3.75239 0.000839233H16.2522C16.2798 0.0157778 16.3091 0.0272155 16.3395 0.0348873C18.1086 0.245047 19.5356 1.58545 19.9011 3.27729C19.9363 3.44636 19.9669 3.61778 20.0001 3.7888ZM15.0017 8.32543C15.4386 8.32672 15.8715 8.24169 16.2754 8.07521C16.6794 7.90874 17.0465 7.66411 17.3556 7.35537C17.6647 7.04663 17.9098 6.67986 18.0768 6.27614C18.2437 5.87241 18.3293 5.43968 18.3285 5.0028C18.33 4.56598 18.2451 4.13317 18.0789 3.72923C17.9126 3.32528 17.6682 2.95814 17.3597 2.64888C17.0512 2.33962 16.6846 2.09432 16.281 1.92708C15.8775 1.75983 15.4448 1.67393 15.008 1.67429C14.5711 1.67182 14.1381 1.75563 13.7337 1.92093C13.3293 2.08622 12.9616 2.32975 12.6516 2.63752C12.3416 2.94529 12.0954 3.31124 11.9272 3.71439C11.759 4.11753 11.672 4.54993 11.6714 4.98675C11.6686 5.42525 11.7527 5.85995 11.919 6.26572C12.0853 6.67148 12.3304 7.04027 12.64 7.35074C12.9497 7.66121 13.3179 7.90721 13.7233 8.07451C14.1287 8.24181 14.5632 8.3271 15.0017 8.32543Z" fill="#4D4D4D"/>
<path d="M18.1625 19.2776C18.0842 19.2243 18.0153 19.193 17.9668 19.1433C16.9894 18.1696 16.0133 17.1945 15.0384 16.2179C13.1337 14.3133 11.228 12.4087 9.3214 10.5041C8.29244 9.47754 6.76563 9.43762 5.75428 10.4364C3.86974 12.2981 2.00203 14.1766 0.130798 16.052C0.103962 16.0813 0.083224 16.1157 0.0697863 16.1531C0.0563485 16.1905 0.0504788 16.2303 0.0525196 16.27C0.0788638 16.5089 0.124145 16.7454 0.187939 16.9771C0.740189 18.8212 2.32062 19.9965 4.24782 19.9988C6.43491 20.0017 8.62186 20.0017 10.8087 19.9988C12.5402 19.9988 14.2713 20.0055 16.0028 19.9926C16.7656 19.9859 17.4639 19.737 18.1625 19.2776Z" fill="white"/>
<path d="M18.1624 19.2776C17.4638 19.7374 16.7655 19.9863 16.0004 19.9922C14.2689 20.0051 12.5378 19.998 10.8062 19.9984C8.61942 19.9984 6.43247 19.9984 4.24538 19.9984C2.31818 19.9961 0.737753 18.8208 0.185502 16.9768C0.121708 16.745 0.0764224 16.5085 0.0500782 16.2696C0.0480374 16.2299 0.0539071 16.1901 0.0673449 16.1527C0.0807826 16.1153 0.10152 16.0809 0.128356 16.0516C1.99959 14.1762 3.8673 12.2977 5.75184 10.436C6.76319 9.43722 8.29 9.47714 9.31896 10.5037C11.2266 12.4065 13.1323 14.3111 15.036 16.2175C16.0121 17.1928 16.9882 18.1679 17.9644 19.1429C18.0152 19.1926 18.083 19.2239 18.1624 19.2776Z" fill="#4D4D4D"/>
<path d="M14.9961 3.3289C15.8928 3.32342 16.6619 4.08892 16.667 4.99139C16.672 5.89387 15.9296 6.65036 15.0133 6.66993C14.1159 6.68872 13.3323 5.90952 13.3335 4.99883C13.3339 4.09479 14.0912 3.33477 14.9961 3.3289Z" fill="#4D4D4D"/>
</g>
<defs>
<clipPath id="clip0_0_1108">
<rect width="20" height="20" fill="white"/>
</clipPath>
</defs>
</svg>
