<svg width="81" height="81" viewBox="0 0 81 81" fill="none" xmlns="http://www.w3.org/2000/svg">
<g clip-path="url(#clip0_7_9)">
<path d="M61.51 39.3849L31.81 19.1349C31.3956 18.8541 30.861 18.8231 30.4182 19.0566C29.9767 19.2902 29.7 19.7492 29.7 20.25V60.75C29.7 61.2509 29.9767 61.7099 30.4195 61.9434C30.6166 62.0487 30.834 62.1 31.05 62.1C31.3159 62.1 31.5819 62.0204 31.81 61.8651L61.51 41.6151C61.8786 41.364 62.1 40.9469 62.1 40.5C62.1 40.0532 61.8786 39.636 61.51 39.3849ZM32.4 58.1945V22.8056L58.3537 40.5L32.4 58.1945Z" fill="white"/>
<path d="M40.5 0C18.1683 0 0 18.1683 0 40.5C0 62.8317 18.1683 81 40.5 81C62.8317 81 81 62.8317 81 40.5C81 18.1683 62.8317 0 40.5 0ZM40.5 78.3C19.6574 78.3 2.7 61.3427 2.7 40.5C2.7 19.6574 19.6574 2.7 40.5 2.7C61.3427 2.7 78.3 19.6574 78.3 40.5C78.3 61.3427 61.3427 78.3 40.5 78.3Z" fill="white"/>
</g>
<defs>
<clipPath id="clip0_7_9">
<rect width="81" height="81" fill="white"/>
</clipPath>
</defs>
</svg>
