<svg width="50" height="49" viewBox="0 0 50 49" fill="none" xmlns="http://www.w3.org/2000/svg">
<g clip-path="url(#clip0_0_1100)">
<path d="M21.8822 9.44734e-06C22.9449 0.191848 24.0076 0.319718 25.0448 0.575503C27.7641 1.30187 30.2556 2.70265 32.2881 4.64783C34.3206 6.593 35.8282 9.01953 36.6709 11.7022C36.8143 12.1853 37.0868 12.6204 37.459 12.9606C37.8312 13.3008 38.289 13.5334 38.7835 13.6334C41.7655 14.3818 44.4031 16.1231 46.2612 18.57C48.1638 21.0451 49.3903 23.9713 49.8207 27.0621C50.2207 29.6472 49.9754 32.2909 49.1065 34.7585C48.2376 37.2261 46.772 39.4412 44.8399 41.207C43.5428 42.4487 42.056 43.4762 40.4353 44.2509C39.9814 44.4458 39.4722 44.4703 39.0017 44.3199C38.5311 44.1695 38.1308 43.8543 37.8745 43.4323C37.6052 42.9794 37.5175 42.4414 37.6292 41.9265C37.7408 41.4117 38.0434 40.9581 38.4763 40.6571C38.9116 40.3757 39.3982 40.1711 39.8463 39.9025C41.5702 38.885 43.021 37.4647 44.0741 35.7637C45.1271 34.0626 45.751 32.1315 45.8921 30.1365C46.0331 28.1414 45.6871 26.142 44.8839 24.31C44.0806 22.4779 42.844 20.8681 41.2804 19.6187C40.0666 18.6344 38.6697 17.8998 37.1703 17.4573C36.3098 17.2242 35.5108 16.8057 34.8295 16.2313C34.1482 15.6568 33.6011 14.9403 33.2266 14.1321C32.8937 13.4415 32.7144 12.687 32.4071 11.9963C31.6118 10.0208 30.3087 8.28991 28.6293 6.97849C26.9499 5.66707 24.9538 4.8216 22.8425 4.52742C19.6801 4.00204 16.4368 4.72103 13.7938 6.53343C11.1509 8.34583 9.31378 11.1106 8.66836 14.2472C8.16839 16.6687 8.38185 19.1831 9.28293 21.486C9.76188 22.6982 9.8413 24.0313 9.50972 25.2917C9.17814 26.5521 8.45282 27.6741 7.43914 28.4945C6.27101 29.3828 5.34258 30.5475 4.73749 31.8836C4.37745 32.8157 4.2137 33.8118 4.25656 34.8099C4.29941 35.808 4.54794 36.7865 4.98656 37.6843C5.42517 38.5822 6.04446 39.38 6.80573 40.0279C7.56701 40.6758 8.45387 41.16 9.41094 41.45C10.2428 41.695 11.1045 41.8241 11.9718 41.8337C15.5825 41.8337 19.2061 41.8337 22.8169 41.8337C23.301 41.789 23.7856 41.9157 24.1857 42.1915C24.5859 42.4673 24.8764 42.8748 25.0064 43.3428C25.0998 43.6735 25.1109 44.0219 25.0388 44.3578C24.9668 44.6938 24.8136 45.0071 24.5928 45.2705C24.372 45.5339 24.0901 45.7395 23.7717 45.8694C23.4533 45.9992 23.108 46.0495 22.7657 46.0158H12.5224C11.9974 46.0158 11.4852 46.0158 10.9603 45.9518C8.33177 45.7817 5.83757 44.731 3.88112 42.9694C1.92467 41.2079 0.62041 38.8386 0.179235 36.2448C0.179235 36.0274 0.0895598 35.81 0.0511475 35.5798V33.6358C0.0511475 33.4951 0.127981 33.3544 0.140786 33.2137C0.311166 31.7391 0.770968 30.3126 1.4938 29.0156C2.21663 27.7187 3.18835 26.5768 4.35338 25.6553C4.61796 25.5064 4.85043 25.3067 5.03751 25.0678C5.22459 24.8289 5.36259 24.5553 5.4435 24.263C5.52441 23.9706 5.54665 23.6651 5.50899 23.3641C5.47133 23.0632 5.37451 22.7726 5.22405 22.5091C3.98793 19.4173 3.77255 16.0119 4.6094 12.7893C5.30146 9.695 6.88096 6.86911 9.15484 4.65692C11.4287 2.44473 14.2985 0.942023 17.4135 0.332504C18.1177 0.153454 18.8476 0.0767466 19.5647 -0.0383568L21.8822 9.44734e-06Z" fill="#8E8E8E"/>
<path d="M33.3418 30.3361V30.8861C33.3418 35.8483 33.3418 40.7978 33.3418 45.76C33.3751 46.176 33.2894 46.5929 33.0944 46.9621C32.8994 47.3312 32.6033 47.6373 32.2407 47.8446C31.9442 48.006 31.6126 48.0922 31.275 48.0956C30.9374 48.0991 30.6042 48.0196 30.3045 47.8643C30.0048 47.7089 29.748 47.4825 29.5564 47.2048C29.3649 46.927 29.2446 46.6066 29.2061 46.2716C29.1931 46.0287 29.1931 45.7854 29.2061 45.5426V30.2978L28.8732 30.5535C28.1305 31.2953 27.3879 32.0499 26.6325 32.7917C26.4477 33.0156 26.2181 33.1986 25.9584 33.3289C25.6987 33.4591 25.4146 33.5338 25.1244 33.548C24.8342 33.5623 24.5442 33.5158 24.273 33.4117C24.0017 33.3075 23.7552 33.1479 23.5493 32.9431C23.3434 32.7383 23.1826 32.4929 23.0771 32.2224C22.9717 31.952 22.9239 31.6625 22.9369 31.3725C22.9499 31.0826 23.0234 30.7985 23.1527 30.5386C23.2819 30.2786 23.4641 30.0485 23.6875 29.8629C24.8015 28.7375 25.9283 27.5992 27.0807 26.4994C28.2256 25.4524 29.7216 24.8716 31.2739 24.8716C32.8263 24.8716 34.3224 25.4524 35.4673 26.4994C36.6581 27.6376 37.8104 28.8014 38.9628 29.978C39.164 30.1691 39.3247 30.3985 39.4355 30.6527C39.5462 30.9069 39.6048 31.1807 39.6077 31.4579C39.6106 31.7352 39.5578 32.0102 39.4523 32.2666C39.3469 32.5231 39.191 32.7558 38.9939 32.951C38.7968 33.1462 38.5625 33.2998 38.3048 33.4029C38.0471 33.506 37.7713 33.5564 37.4938 33.5511C37.2163 33.5457 36.9427 33.4849 36.6892 33.372C36.4357 33.2591 36.2074 33.0966 36.0179 32.894C35.16 32.0755 34.3277 31.2186 33.4571 30.3361H33.3418Z" fill="#8E8E8E"/>
</g>
<defs>
<clipPath id="clip0_0_1100">
<rect width="50" height="48.1132" fill="white"/>
</clipPath>
</defs>
</svg>
