<svg width="20" height="20" viewBox="0 0 20 20" fill="none" xmlns="http://www.w3.org/2000/svg">
<g clip-path="url(#clip0_0_1118)">
<path d="M20.0007 3.7886V16.2091C19.9709 16.3679 19.9463 16.5276 19.9111 16.6853C19.4778 18.6358 17.8197 19.9898 15.8188 19.9949C11.9406 20.0043 8.06196 19.9977 4.18375 19.9977C3.4402 19.9977 2.73578 19.8172 2.09985 19.4361C0.714882 18.606 0.0104641 17.3655 0.00615935 15.7539C-0.00440692 11.9148 0.00263421 8.07537 0.00302555 4.23629C0.00302555 4.1515 0.00497844 4.06684 0.00889188 3.98231C0.0508762 3.08544 0.380643 2.22595 0.94933 1.53117C1.51802 0.83638 2.29538 0.343252 3.16626 0.124839C3.36193 0.0767034 3.5576 0.0410911 3.75327 0H16.2508C16.2785 0.0150061 16.3079 0.026446 16.3385 0.0340467C18.1077 0.244198 19.5338 1.58494 19.8997 3.27672C19.9369 3.44656 19.967 3.61797 20.0007 3.7886ZM5.82387 9.97848C5.82387 10.7005 5.83521 11.4229 5.82152 12.145C5.81151 12.4875 5.89152 12.8267 6.05357 13.1286C6.21562 13.4305 6.45403 13.6847 6.74501 13.8657C7.03599 14.0467 7.36935 14.1482 7.71182 14.1601C8.0543 14.1719 8.39389 14.0938 8.69672 13.9334C10.1357 13.1812 11.6021 12.4815 13.052 11.7501C13.7564 11.3947 14.1458 10.8163 14.1528 10.0219C14.1595 9.22005 13.7834 8.62169 13.0727 8.26087C11.5856 7.5044 10.0922 6.75576 8.58949 6.03021C8.31404 5.89857 8.01097 5.83508 7.70584 5.84511C6.58347 5.90068 5.82739 6.72837 5.82426 7.8527C5.8223 8.55986 5.82387 9.26936 5.82387 9.97848Z" fill="#4D4D4D"/>
<path d="M7.50173 9.99923C7.50173 9.29037 7.50173 8.58152 7.50173 7.87267C7.50173 7.53455 7.67745 7.4191 7.97839 7.56898C9.41463 8.28358 10.8484 9.0026 12.2796 9.72607C12.3728 9.77303 12.4777 9.90413 12.4781 9.99688C12.4785 10.0896 12.3755 10.2231 12.2824 10.2708C10.8462 10.9991 9.40484 11.7188 7.96352 12.4349C7.68958 12.5707 7.50251 12.4529 7.50134 12.1465C7.49977 11.4304 7.50173 10.715 7.50173 9.99923Z" fill="#4D4D4D"/>
</g>
<defs>
<clipPath id="clip0_0_1118">
<rect width="20" height="20" fill="white"/>
</clipPath>
</defs>
</svg>
